<?xml version="1.0" encoding="utf-8"?>
<!-- Generator: Adobe Illustrator 13.0.2, SVG Export Plug-In . SVG Version: 6.00 Build 14948)  -->
<!DOCTYPE svg PUBLIC "-//W3C//DTD SVG 1.0//EN" "http://www.w3.org/TR/2001/REC-SVG-20010904/DTD/svg10.dtd">
<svg version="1.0"
	 id="svg2" sodipodi:docname="photoshop.svg" inkscape:version="0.46" sodipodi:version="0.32" xmlns:dc="http://purl.org/dc/elements/1.1/" xmlns:cc="http://creativecommons.org/ns#" xmlns:rdf="http://www.w3.org/1999/02/22-rdf-syntax-ns#" xmlns:svg="http://www.w3.org/2000/svg" xmlns:sodipodi="http://sodipodi.sourceforge.net/DTD/sodipodi-0.dtd" xmlns:inkscape="http://www.inkscape.org/namespaces/inkscape" inkscape:output_extension="org.inkscape.output.svg.inkscape"
	 xmlns="http://www.w3.org/2000/svg" xmlns:xlink="http://www.w3.org/1999/xlink" x="0px" y="0px" width="256px" height="256px"
	 viewBox="0 0 256 256" enable-background="new 0 0 256 256" xml:space="preserve">
<defs>
	
	
		<inkscape:perspective  id="perspective10" inkscape:vp_z="744.09448 : 526.18109 : 1" inkscape:vp_y="0 : 1000 : 0" inkscape:vp_x="0 : 526.18109 : 1" sodipodi:type="inkscape:persp3d" inkscape:persp3d-origin="372.04724 : 350.78739 : 1">
		</inkscape:perspective>
	
		<inkscape:perspective  id="perspective2390" inkscape:vp_z="744.09448 : 526.18109 : 1" inkscape:vp_y="0 : 1000 : 0" inkscape:vp_x="0 : 526.18109 : 1" sodipodi:type="inkscape:persp3d" inkscape:persp3d-origin="372.04724 : 350.78739 : 1">
		</inkscape:perspective>
</defs>
<sodipodi:namedview  id="base" showgrid="false" inkscape:cy="123.94138" inkscape:cx="271.75842" pagecolor="#ffffff" inkscape:zoom="1.4" borderopacity="1.0" bordercolor="#666666" inkscape:window-y="-8" inkscape:window-x="1392" inkscape:window-height="748" inkscape:window-width="1024" inkscape:current-layer="layer1" inkscape:document-units="px" inkscape:pageshadow="2" inkscape:pageopacity="0.0">
	</sodipodi:namedview>
<g id="layer1" inkscape:label="Calque 1" inkscape:groupmode="layer">
	
		<linearGradient id="rect2396_1_" gradientUnits="userSpaceOnUse" x1="122.9551" y1="590.8516" x2="378.9551" y2="590.8516" gradientTransform="matrix(0 1 1 0 -462.8516 -122.9551)">
		<stop  offset="0" style="stop-color:#2E6EDC"/>
		<stop  offset="0.45" style="stop-color:#1E50A0"/>
		<stop  offset="1" style="stop-color:#0F3264"/>
	</linearGradient>
	<rect id="rect2396" fill="url(#rect2396_1_)" width="256" height="256"/>
	<path id="flowRoot3178" fill="#EBEBEB" d="M131,98.401c0,5.87-0.926,11.165-2.777,15.885c-1.852,4.72-4.499,8.744-7.941,12.072
		c-3.443,3.328-7.667,5.9-12.672,7.716c-5.005,1.814-10.979,2.723-17.922,2.723H76.928v42.299c0,0.484-0.13,0.907-0.391,1.271
		s-0.666,0.65-1.215,0.862c-0.55,0.212-1.302,0.394-2.257,0.545c-0.955,0.15-2.155,0.227-3.602,0.227
		c-1.447,0-2.647-0.076-3.602-0.227c-0.955-0.151-1.722-0.333-2.3-0.545c-0.579-0.212-0.984-0.499-1.215-0.862S62,179.58,62,179.096
		V70.717c0-2.42,0.607-4.145,1.823-5.174C65.038,64.515,66.397,64,67.902,64h24.042c2.43,0,4.759,0.106,6.987,0.318
		s4.86,0.666,7.898,1.361c3.038,0.696,6.133,1.997,9.287,3.903c3.153,1.906,5.83,4.251,8.028,7.035
		c2.199,2.783,3.891,6.006,5.077,9.667C130.406,89.945,131,93.984,131,98.401L131,98.401z M115.291,99.672
		c0-4.78-0.854-8.774-2.561-11.981c-1.707-3.207-3.819-5.598-6.335-7.171c-2.517-1.573-5.121-2.572-7.812-2.996
		c-2.69-0.423-5.309-0.635-7.854-0.635h-13.8v47.109h13.453c4.513,0,8.259-0.605,11.239-1.815s5.482-2.89,7.508-5.038
		c2.025-2.148,3.558-4.72,4.6-7.715C114.77,106.435,115.291,103.182,115.291,99.672L115.291,99.672z"/>
	<g id="flowRoot3186">
	</g>
	<path id="flowRoot3194" fill="#EBEBEB" d="M198.54,156.349c0,4.083-0.755,7.722-2.264,10.917s-3.653,5.889-6.435,8.077
		c-2.781,2.189-6.096,3.847-9.941,4.971S171.823,182,167.207,182c-2.84,0-5.547-0.222-8.121-0.666
		c-2.574-0.443-4.881-1.006-6.923-1.686c-2.042-0.682-3.772-1.391-5.192-2.131s-2.456-1.405-3.107-1.997
		c-0.65-0.592-1.123-1.42-1.42-2.485c-0.295-1.064-0.443-2.515-0.443-4.35c0-1.124,0.059-2.07,0.178-2.84
		c0.118-0.77,0.266-1.391,0.443-1.863c0.178-0.475,0.43-0.814,0.755-1.021s0.694-0.311,1.109-0.311c0.651,0,1.612,0.399,2.885,1.198
		s2.841,1.672,4.704,2.618c1.863,0.947,4.068,1.82,6.613,2.619c2.544,0.799,5.473,1.197,8.787,1.197
		c2.484,0,4.733-0.266,6.745-0.799c2.012-0.532,3.757-1.316,5.237-2.352c1.479-1.035,2.618-2.352,3.417-3.949
		s1.198-3.492,1.198-5.682c0-2.248-0.577-4.142-1.73-5.68c-1.154-1.539-2.678-2.9-4.572-4.084c-1.893-1.184-4.023-2.233-6.391-3.15
		c-2.366-0.917-4.807-1.879-7.322-2.885c-2.515-1.006-4.971-2.145-7.367-3.418c-2.396-1.271-4.541-2.824-6.435-4.659
		s-3.417-4.024-4.571-6.568c-1.154-2.544-1.73-5.592-1.73-9.142c0-3.136,0.605-6.139,1.819-9.009
		c1.213-2.87,3.032-5.385,5.458-7.544c2.427-2.16,5.459-3.891,9.099-5.192c3.639-1.302,7.885-1.953,12.737-1.953
		c2.13,0,4.26,0.177,6.391,0.532c2.13,0.355,4.053,0.799,5.77,1.332c1.715,0.533,3.18,1.109,4.393,1.731
		c1.213,0.621,2.131,1.168,2.752,1.642c0.621,0.473,1.035,0.888,1.242,1.243s0.355,0.754,0.444,1.198s0.177,0.991,0.267,1.642
		c0.088,0.651,0.133,1.45,0.133,2.397c0,1.006-0.045,1.878-0.133,2.618c-0.09,0.74-0.237,1.346-0.444,1.82
		c-0.207,0.473-0.458,0.813-0.755,1.021c-0.295,0.207-0.621,0.311-0.976,0.311c-0.532,0-1.302-0.325-2.308-0.976
		s-2.309-1.346-3.906-2.086s-3.477-1.435-5.636-2.086s-4.63-0.976-7.411-0.976c-2.485,0-4.675,0.281-6.568,0.843
		c-1.894,0.563-3.447,1.361-4.66,2.396c-1.213,1.036-2.131,2.264-2.752,3.684c-0.621,1.42-0.932,2.959-0.932,4.616
		c0,2.308,0.592,4.246,1.775,5.814c1.184,1.568,2.723,2.944,4.615,4.127c1.894,1.184,4.054,2.249,6.479,3.195
		c2.427,0.946,4.897,1.923,7.411,2.929c2.516,1.006,5,2.131,7.457,3.373c2.455,1.243,4.629,2.752,6.523,4.527
		c1.893,1.775,3.417,3.905,4.57,6.391C197.963,149.958,198.54,152.916,198.54,156.349L198.54,156.349z"/>
</g>
</svg>
