<?xml version="1.0" encoding="UTF-8" standalone="no"?>
<svg xmlns:rdf="http://www.w3.org/1999/02/22-rdf-syntax-ns#" xmlns="http://www.w3.org/2000/svg" height="36.2251" width="42.0688" version="1.1" xmlns:cc="http://creativecommons.org/ns#" xmlns:xlink="http://www.w3.org/1999/xlink" xmlns:dc="http://purl.org/dc/elements/1.1/">
 <defs>
  <linearGradient id="a" y2="137.727" gradientUnits="userSpaceOnUse" y1="136.645" x2="78.2884" x1="79.1005">
   <stop stop-color="#CBC9DD" offset="0"/>
   <stop stop-color="#F9F9FB" offset=".658824"/>
   <stop stop-color="#fff" offset="1"/>
  </linearGradient>
  <linearGradient id="b" y2="137.615" gradientUnits="userSpaceOnUse" y1="136.317" x2="83.6195" x1="83.6195">
   <stop stop-color="#666" offset="0"/>
   <stop stop-color="#B5B1B4" offset=".121569"/>
   <stop stop-color="#E5E5E5" offset=".188235"/>
   <stop stop-color="#fff" offset=".301961"/>
   <stop stop-color="#C8CECB" offset=".4"/>
   <stop stop-color="#9F9A9E" offset=".619608"/>
   <stop stop-color="#666467" offset=".890196"/>
   <stop stop-color="#666" offset="1"/>
  </linearGradient>
  <linearGradient id="d" y2="135.215" gradientUnits="userSpaceOnUse" y1="136.832" x2="83.4472" x1="83.4472">
   <stop stop-color="#613050" offset="0"/>
   <stop stop-color="#663354" offset=".25098"/>
   <stop stop-color="#C979AC" offset="1"/>
  </linearGradient>
  <linearGradient id="e" y2="139.08" gradientUnits="userSpaceOnUse" y1="140.859" x2="83.4472" x1="83.4472">
   <stop stop-color="#1E3918" offset="0"/>
   <stop stop-color="#1E3918" offset=".25098"/>
   <stop stop-color="#3BBB4E" offset="1"/>
  </linearGradient>
  <linearGradient id="f" y2="137.082" gradientUnits="userSpaceOnUse" y1="138.83" x2="83.4472" x1="83.4472">
   <stop stop-color="#1E2576" offset="0"/>
   <stop stop-color="#202A7C" offset=".25098"/>
   <stop stop-color="#3C5EB5" offset="1"/>
  </linearGradient>
  <linearGradient id="g" y2="134.996" gradientUnits="userSpaceOnUse" y1="133.385" x2="82.6738" x1="82.6738">
   <stop stop-color="#613050" offset="0"/>
   <stop stop-color="#673455" offset=".501961"/>
   <stop stop-color="#C979AC" offset="1"/>
  </linearGradient>
  <linearGradient id="h" y2="140.898" gradientUnits="userSpaceOnUse" y1="133.339" x2="81.6312" x1="83.791">
   <stop stop-color="#974810" offset="0"/>
   <stop stop-color="#974810" offset=".317761"/>
   <stop stop-color="#633" offset="1"/>
  </linearGradient>
  <style type="text/css">.fil1 {fill:black}
    .fil2 {fill:white}
    .fil0 {fill:#163F91}
    .fil10 {fill:#B5BF2C}
    .fil12 {fill:#F2A7D7}
    .fil15 {fill:#191919}
    .fil11 {fill:#0D0D0D;fill-rule:nonzero}
    .fil13 {fill:url(#h)}
    .fil3 {fill:url(#g)}
    .fil9 {fill:url(#f)}
    .fil8 {fill:url(#e)}
    .fil4 {fill:url(#d)}
    .fil14 {fill:url(#b)}
    .fil5 {fill:url(#a)}
    .fil6 {fill:url(#id7)}
    .fil7 {fill:url(#id8)}</style>
  <linearGradient id="r" y2="137.615" xlink:href="#b" gradientUnits="userSpaceOnUse" x2="83.6195" gradientTransform="matrix(3.54331 0 0 3.54331 -32.5007 37.3613)" y1="136.317" x1="83.6195"/>
  <linearGradient id="q" y2="137.082" xlink:href="#f" gradientUnits="userSpaceOnUse" x2="83.4472" gradientTransform="matrix(3.54331 0 0 3.54331 -32.5007 37.3613)" y1="138.83" x1="83.4472"/>
  <linearGradient id="p" y2="139.08" xlink:href="#e" gradientUnits="userSpaceOnUse" x2="83.4472" gradientTransform="matrix(3.54331 0 0 3.54331 -32.5007 37.3613)" y1="140.859" x1="83.4472"/>
  <linearGradient id="o" y2="135.215" xlink:href="#d" gradientUnits="userSpaceOnUse" x2="83.4472" gradientTransform="matrix(3.54331 0 0 3.54331 -32.5007 37.3613)" y1="136.832" x1="83.4472"/>
  <linearGradient id="n" y2="134.996" xlink:href="#g" gradientUnits="userSpaceOnUse" x2="82.6738" gradientTransform="matrix(3.54331 0 0 3.54331 -32.5007 37.3613)" y1="133.385" x1="82.6738"/>
  <linearGradient id="m" y2="137.727" xlink:href="#a" gradientUnits="userSpaceOnUse" x2="78.2884" y1="136.645" x1="79.1005"/>
  <linearGradient id="l" y2="139.678" xlink:href="#a" gradientUnits="userSpaceOnUse" x2="78.2957" y1="138.613" x1="79.0947"/>
  <linearGradient id="k" y2="135.686" xlink:href="#a" gradientUnits="userSpaceOnUse" x2="78.2752" y1="134.563" x1="79.1176"/>
  <linearGradient id="w" y2="521.945" spreadMethod="reflect" gradientUnits="userSpaceOnUse" x2="263.841" gradientTransform="matrix(1 0 0 1.23559 0 -122.966)" y1="524.23" x1="263.76">
   <stop stop-color="#974810" offset="0"/>
   <stop stop-color="#974810" offset=".349408"/>
   <stop stop-color="#633" offset="1"/>
  </linearGradient>
  <radialGradient id="j" xlink:href="#h" gradientUnits="userSpaceOnUse" cy="529.064" cx="258.058" gradientTransform="matrix(5.88634 4.83979 -1.8923 2.30149 -263.483 -1948.3)" r="4.40911"/>
  <linearGradient id="v" y2="521.945" xlink:href="#b" spreadMethod="reflect" gradientUnits="userSpaceOnUse" x2="263.841" gradientTransform="matrix(-.296229 0 0 -.720236 341.844 898.973)" y1="526.243" x1="263.685"/>
  <radialGradient id="i" xlink:href="#c" gradientUnits="userSpaceOnUse" cy="134.105" cx="80.1613" gradientTransform="matrix(-1.67768 -1.0644 .556862 -.877711 140.152 337.202)" r="1.01375"/>
  <linearGradient id="u" y2="24.6809" gradientUnits="userSpaceOnUse" x2="14.7711" y1="12.3066" x1="14.5452">
   <stop stop-color="#f1f060" offset="0"/>
   <stop offset="1"/>
  </linearGradient>
  <linearGradient id="t" y2="31.3773" gradientUnits="userSpaceOnUse" x2="14.7711" y1="19.003" x1="14.5452">
   <stop stop-color="#f1f060" offset="0"/>
   <stop offset="1"/>
  </linearGradient>
  <linearGradient id="s" y2="38.8774" xlink:href="#c" gradientUnits="userSpaceOnUse" x2="14.7711" y1="26.503" x1="14.5452"/>
  <linearGradient id="c">
   <stop stop-color="#f1f060" offset="0"/>
   <stop offset="1"/>
  </linearGradient>
 </defs>
 <g transform="translate(-239.132 -505.129)">
  <g fill-rule="evenodd">
   <path d="m270.488 509.985 4.66405 4.32744c0.0106 0.0106 0.0202 0.0177 0.0305 0.0283 0.01 0.0106 0.0206 0.0177 0.0305 0.0284 0.005 0.004 0.01 0.007 0.0145 0.0142 0.005 0.004 0.01 0.0106 0.0149 0.0142 0.28346 0.2654 0.48756 0.46772 0.63461 0.65091 0.43582 0.64559-0.48119 0.51555-1.2515 0.53433h-23.3834-0.0397-0.0383-0.0379-0.26221-0.003c-0.0337 0-0.0673 0.00035-0.10027 0.002-0.50492-0.002-0.77634-0.0535-1.15937-0.48615-0.00036-0.00035-0.00036-0.00071-0.00071-0.001 0-0.00035-0.00036-0.00035-0.00036-0.00071-0.18956-0.24768-0.4507-0.52264-0.81106-0.88441l-0.002-0.002c-0.005-0.004-0.011-0.0106-0.0163-0.0177-0.006-0.007-0.012-0.0106-0.0181-0.0177l-0.001-0.001c-0.006-0.007-0.0117-0.0106-0.0174-0.0177-0.006-0.007-0.012-0.0106-0.0181-0.0177l-4.15311-4.15276h25.9246z" class="fil3" fill="url(#n)"/>
   <path d="m250.103 517.554v0.11161 3.66343 0.004 0.0106 0.0106 0.0106c0.009 0.23102 0.0978 0.43972 0.23527 0.58996h0.002c0.13641 0.14882 0.32137 0.24201 0.52086 0.24272h0.001 0.002 24.6288 0.002 0.001c0.19913-0.00036 0.38374-0.0928 0.5198-0.24166h0.002c0.14528-0.15838 0.23634-0.3809 0.2367-0.62681v-0.002-3.98871-0.004c-0.00071-0.24342-0.0914-0.46453-0.23705-0.62362-0.13677-0.14953-0.3228-0.24272-0.52264-0.24272h-0.002-24.6288-0.003c-0.19984 0.00036-0.38515 0.0928-0.52157 0.24166-0.14528 0.15803-0.23634 0.38055-0.23634 0.62681v0.002 0.21366z" class="fil4" fill="url(#o)"/>
   <g transform="matrix(3.54331 0 0 3.54331 -32.5007 37.3613)">
    <path fill="url(#m)" d="m77.8813 137.299v-1.7288l1.1074 1.1073c0.1128 0.1129 0.2362 0.2279 0.34 0.3494 0.1136 0.1334 0.1615 0.2546 0.1726 0.4282 0.0033 0.052 0.0047 0.1106 0.0052 0.178 0.0011 0.1365-0.0017 0.2732-0.0017 0.4098 0 0.1731 0.0009 0.3464 0.0018 0.5195 0.0005 0.1048-0.0238 0.2404-0.1848 0.0909l-0.003-0.003c-0.0009-0.0009-0.0018-0.002-0.0028-0.003l-0.0051-0.005-1.2926-1.2926c-0.0375-0.0377-0.0884-0.0628-0.137-0.0509z" class="fil5"/>
    <path fill="url(#l)" d="m77.8813 139.207v-1.6413l1.1425 1.1425c0.0626 0.0626 0.1251 0.1259 0.1882 0.1879 0.001 0.0009 0.0019 0.002 0.0028 0.003 0.0009 0.0008 0.0018 0.002 0.0027 0.002 0.0004 0.0004 0.0008 0.0009 0.0011 0.001 0.0005 0.0005 0.0012 0.001 0.0017 0.002 0.1802 0.1812 0.2567 0.264 0.274 0.4525 0.0148 0.1607 0.011 0.3379 0.0124 0.5183 0.0015 0.1993 0.0017 0.3972-0.0007 0.5889-0.0017 0.1312-0.0107 0.2607-0.225 0.0463l-1.2727-1.2726c-0.0343-0.0343-0.0838-0.0447-0.127-0.0306z" class="fil6"/>
    <path fill="url(#k)" d="m77.8813 135.313v-1.8858l1.3076 1.3075c0.2576 0.2577 0.3067 0.329 0.3158 0.5797 0.0068 0.1879 0.0021 0.3773 0.0018 0.5665-0.0005 0.2073-0.0003 0.4153 0.0002 0.6223 0.0002 0.1163-0.019 0.3197-0.3 0.0387l-1.1984-1.1983c-0.0343-0.0343-0.0838-0.0447-0.127-0.0306z" class="fil7"/>
   </g>
   <path d="m250.103 532.138v3.23291 0.10984 0.004c0.00035 0.28346 0.096 0.53787 0.24803 0.71858 0.13606 0.16087 0.31819 0.2615 0.5113 0.2615h0.002 24.6288 0.003c0.19276-0.00036 0.37382-0.10063 0.50917-0.26079 0.15343-0.18106 0.24874-0.43654 0.2491-0.72142v-0.002-4.33382-0.004c-0.00071-0.28346-0.096-0.53787-0.24839-0.71858-0.13358-0.15838-0.31216-0.25831-0.50279-0.2615h-0.007-0.001-0.002-24.6288-0.002-0.001c-0.19276 0.00036-0.37418 0.10063-0.50953 0.26079-0.15307 0.18107-0.24874 0.43654-0.24874 0.72107v0.002 0.99106z" class="fil8" fill="url(#p)"/>
   <path d="m250.103 525.416v2.88993 0.0106 0.004 0.0142 0.0142c0.006 0.2661 0.0996 0.50492 0.24626 0.6757 0.13535 0.15804 0.31748 0.25619 0.51201 0.25725h0.001 0.002 24.6288 0.002 0.001c0.19417-0.00071 0.3763-0.0989 0.51094-0.25654 0.15201-0.17681 0.24697-0.42626 0.24733-0.7037v-0.002-4.26792-0.004c-0.00071-0.27602-0.0953-0.52476-0.24662-0.70122-0.13535-0.15768-0.31677-0.25618-0.51165-0.25689h-0.001-0.002-24.6288-0.002-0.001c-0.19417 0.00035-0.37594 0.0989-0.51094 0.25618-0.15201 0.17717-0.24697 0.42626-0.24697 0.7037v0.002 1.36878z" class="fil9" fill="url(#q)"/>
   <polygon transform="matrix(3.54331 0 0 3.54331 -32.5007 37.3613)" class="fil10" points="81.2511 134.59 80.2019 134.59 79.2236 133.612 80.2728 133.612" fill="url(#i)"/>
  </g>
  <path d="m243.403 510.081c-0.55984-0.64098-0.18425-0.94535 0.49111-0.94535h26.0468c0.74728 0 0.82736-0.0939 1.38826 0.42697l4.42489 4.10527c1.33582 1.2391 1.44567 1.63028 1.44567 3.84662v3.46287c0 0.9039 0.0464 1.61362-0.81709 1.61362 0.76713 0 0.81709 0.71292 0.81709 1.47543v4.16941c0 0.73241-0.16406 1.4843-0.90319 1.4843 0.76216 0 0.90319 0.72248 0.90319 1.65224v3.78035c0 0.23953-0.0337 0.50741-0.10347 0.75579-0.0687 0.33236-0.21543 0.63213-0.41598 0.86988-0.29906 0.35398-0.71823 0.57473-1.18453 0.57579h-0.003-24.6306c-0.92799-0.0319-1.47898-0.0762-2.23228-0.66827-0.17433-0.11338-0.27426-0.22287-0.44221-0.40712-0.0911-0.0996-0.20834-0.22855-0.39791-0.41811l-4.50957-4.50922c-0.17256-0.17291-0.17256-0.45354 0.00036-0.6261 0.17291-0.17291 0.45354-0.17327 0.6261-0.00035l4.50957 4.50921c0.75933 0.75969 0.79122 0.30083 0.79724-0.16405 0.008-0.67926 0.008-1.38048 0.002-2.08666-0.005-0.63921 0.008-1.26709-0.0439-1.83649-0.0613-0.66792-0.33236-0.9613-0.97086-1.60335-0.002-0.002-0.004-0.004-0.006-0.007-0.001-0.001-0.002-0.003-0.004-0.004-0.003-0.003-0.006-0.007-0.01-0.007-0.003-0.003-0.006-0.007-0.01-0.0106-0.22359-0.21968-0.44504-0.44397-0.66685-0.66578l-4.22469-4.22434c-0.002-0.003-0.005-0.007-0.007-0.007-0.16618-0.16618-0.18-0.46099-0.0322-0.62575 0.2211-0.24768 0.51094-0.14882 0.70157 0.0432l4.58008 4.58008 0.0181 0.0177c0.004 0.004 0.007 0.007 0.01 0.0106l0.0106 0.0106c0.57047 0.52973 0.65658 0.0493 0.65481-0.32208-0.003-0.61335-0.006-1.2274-0.006-1.84075 0-0.48402 0.01-0.96839 0.006-1.45205-0.002-0.23882-0.007-0.44646-0.0184-0.63071-0.0393-0.61512-0.20906-1.04456-0.61158-1.51724-0.36779-0.43051-0.80504-0.83799-1.20472-1.23803l-4.10032-4.09996c-0.17256-0.17292-0.17256-0.45319 0.00036-0.62611 0.17291-0.17291 0.45354-0.17326 0.6261-0.00035l4.2463 4.24594c0.99567 0.99567 1.0637 0.27497 1.06299-0.13712-0.002-0.73347-0.002-1.47047-0.00071-2.205 0.001-0.67039 0.0177-1.3415-0.006-2.00728-0.0322-0.88831-0.20622-1.14095-1.11897-2.05406l-4.68674-4.68638zm1.16965-0.0833 4.14354 4.14319c0.39792 0.39827 0.66437 0.70937 0.88406 0.95847 0.48933 0.55382 0.79724 0.48508 1.64161 0.48508h23.3834c0.77031-0.0177 1.68732 0.11126 1.2515-0.53433-0.14457-0.21437-0.39331-0.42697-0.72497-0.73453l-4.65377-4.31788h-25.9253zm31.4033 12.0008c0.0135-0.0142 0.0273-0.0248 0.0397-0.0397h0.002c0.14528-0.15839 0.23634-0.38091 0.2367-0.62682v-0.002-3.9887-0.004c-0.00071-0.24342-0.0914-0.46452-0.23705-0.62362-0.13677-0.14952-0.3228-0.24271-0.52264-0.24271h-0.002-24.6288-0.003c-0.19984 0.00035-0.38515 0.0928-0.52157 0.24165-0.14528 0.15803-0.23634 0.38055-0.23634 0.62681v0.002 0.21366 0.11161 3.66343 0.004 0.0106 0.0106 0.0106c0.009 0.23102 0.0978 0.43973 0.23527 0.58996h0.002c0.13641 0.14882 0.32137 0.24201 0.52086 0.24272h0.001 0.002 24.6288 0.002 0.001c0.18035-0.00036 0.34866-0.0773 0.48012-0.20197zm-25.8732 3.41929v2.88992 0.0106 0.004 0.0142 0.0142c0.006 0.26611 0.0996 0.50492 0.24626 0.67571 0.13535 0.15803 0.31748 0.25618 0.51201 0.25725h0.001 0.002 24.6288 0.002 0.001c0.19417-0.00071 0.3763-0.0989 0.51094-0.25654 0.15201-0.17681 0.24697-0.42626 0.24733-0.7037v-0.002-4.26791-0.004c-0.00071-0.27603-0.0953-0.52477-0.24662-0.70122-0.13535-0.15768-0.31677-0.25618-0.51165-0.25689h-0.001-0.002-24.6288-0.002-0.001c-0.19417 0.00035-0.37594 0.0989-0.51094 0.25618-0.15201 0.17716-0.24697 0.42626-0.24697 0.7037v0.002 1.36878zm0 6.72307v3.23292 0.10984 0.004c0.00035 0.28347 0.096 0.53788 0.24803 0.71859 0.13606 0.16086 0.31819 0.26149 0.5113 0.26149h0.002 24.6288 0.003c0.19276-0.00035 0.37382-0.10063 0.50917-0.26079 0.15343-0.18106 0.24874-0.43653 0.2491-0.72141v-0.002-4.33382-0.004c-0.00071-0.28347-0.096-0.53788-0.24839-0.71858-0.13358-0.15839-0.31216-0.25831-0.50279-0.2615h-0.007-0.001-0.002-24.6288-0.002-0.001c-0.19276 0.00035-0.37418 0.10063-0.50953 0.26079-0.15307 0.18106-0.24874 0.43653-0.24874 0.72106v0.002 0.99106z" class="fil11" fill="#0d0d0d"/>
  <path d="m275.988 515.339c0.1924 0.50386 0.25441 0.87661 0.26468 1.96831-0.007-0.2328-0.096-0.44256-0.23598-0.59528-0.13677-0.14953-0.3228-0.24272-0.52264-0.24272h-0.002-24.6288-0.003c-0.19984 0.00036-0.38515 0.0928-0.52157 0.24166-0.11197 0.12153-0.19063 0.28134-0.22146 0.46063-0.0145-0.61406-0.002-1.55126-0.1924-1.77732 0.24236 0.16299 0.48224 0.18956 0.83516 0.19098 0.0329-0.002 0.0666-0.002 0.10027-0.002h0.003 0.26221 0.0379 0.0383 0.0397 23.3834c0.62362-0.0142 1.34327 0.0673 1.36311-0.24413zm0.26575 2.06752c0 0.0177 0.00071 0.0376 0.00071 0.0563h-0.00071v-0.0563z" fill-rule="evenodd" class="fil12" fill="#f2a7d7"/>
  <g fill-rule="evenodd">
   <path d="m13.1562 12.5v3.9062h0.9063v-3.9062h-0.9063zm1.7188 0v3.9062h0.9062v-3.9062h-0.9062z" transform="translate(239.132 505.129)" fill="url(#u)"/>
   <path style="color:#000000" d="m13.1562 26.9062v3.9063h0.9063v-3.9063h-0.9063zm1.7188 0v3.9063h0.9062v-3.9063h-0.9062z" transform="translate(239.132 505.129)" fill="url(#s)"/>
   <path style="color:#000000" d="m13.1562 19.625v3.9375h0.9063v-3.9375h-0.9063zm1.7188 0v3.9375h0.9062v-3.9375h-0.9062z" transform="translate(239.132 505.129)" fill="url(#t)"/>
  </g>
  <path d="m258.829 509.174 5.29015 5.29015-0.001 0.00071c1.30358 1.30323 1.30429 1.30465 1.30429 5.96835v16.8757h-3.40157v-16.9884c0-3.84732-0.00036-3.84768-0.66544-4.51276l-6.63413-6.63377h4.10776z" class="fil11" fill="#0d0d0d"/>
  <path d="m259.016 509.985c1.66855 1.66855 3.313 3.31335 4.79056 4.79055 1.17318 1.17284 1.17318 1.17284 1.17318 5.65583v16.0069h-2.51539v-16.1196c0-4.03051 0-4.03051-0.79512-4.82598l-5.50771-5.50772h2.85448z" fill-rule="evenodd" class="fil13" fill="url(#j)"/>
  <path d="m264.978 521.948v4.35662c0 0.51749-0.34228 0.94128-0.76075 0.94128h-0.99035c-0.41846 0-0.76075-0.42335-0.76075-0.94128v-4.35662h2.51185z" fill-rule="evenodd" stroke="#000" stroke-width=".1" class="fil15" fill="url(#w)"/>
  <path d="m262.623 522.281v1.86201h2.19685v-1.86201h-2.19685zm-0.66473 2.19437v-2.52673c0-0.16619 0.16619-0.33237 0.33237-0.33237h2.86157c0.16583 0 0.33201 0.16618 0.33201 0.33237v2.52673c0 0.16583-0.16618 0.33236-0.33201 0.33236h-2.86157c-0.16618 0-0.33237-0.16653-0.33237-0.33236zm-0.0418-3.57307h-0.002c-0.18142 0.00035-0.34653 0.0748-0.46523 0.19382-0.11906 0.11905-0.19347 0.28346-0.19382 0.46346v0.004 3.0678 0.002c0.00035 0.18106 0.0748 0.34654 0.19382 0.46524 0.11905 0.1187 0.28311 0.19311 0.46346 0.19382h0.004 3.74386 0.002c0.18142-0.00036 0.34689-0.0748 0.46559-0.19382 0.11871-0.11906 0.19311-0.28347 0.19347-0.46347v-0.004-3.0678-0.001c0-0.18142-0.0744-0.34689-0.19347-0.46559-0.11905-0.1187-0.28346-0.19311-0.46346-0.19382h-0.004-0.71539c-0.12543 0-0.29162-0.12969-0.32173-0.25193l-0.001-0.004h-0.00036v-0.002c-0.0131-0.05-0.0294-0.095-0.0475-0.13393-0.0191-0.0418-0.0443-0.0836-0.0726-0.12367-0.14103-0.197-0.37241-0.32669-0.63248-0.32669h-0.29516-0.005-0.001 0.001m-1.65402 0.17788h0.002 0.3476c0.1474-0.31926 0.40819-0.57721 0.72992-0.71965 0.0797-0.0354 0.163-0.0638 0.24662-0.0836 0.10453-0.0248 0.21401-0.0386 0.32563-0.039h0.001 0.006 0.29516c0.48153 0 0.91027 0.24059 1.17248 0.60662 0.0496 0.0698 0.0946 0.14633 0.13252 0.22783 0.001 0.002 0.003 0.007 0.004 0.007h0.48224 0.004c0.36177 0.001 0.69165 0.14988 0.93047 0.38834 0.24095 0.24024 0.39083 0.57189 0.39118 0.93544v0.001 3.0678 0.004c-0.001 0.36213-0.15023 0.69166-0.38834 0.93083-0.24024 0.24059-0.57189 0.39047-0.93544 0.39083h-0.002-3.74386-0.004c-0.36248-0.001-0.69201-0.15024-0.93083-0.38835-0.24059-0.24024-0.39047-0.57189-0.39118-0.93508v-0.002-3.0678-0.004c0.001-0.36177 0.15024-0.69165 0.3887-0.93083 0.24024-0.24059 0.57154-0.39047 0.93508-0.39082zm1.6526-0.17788c-0.0592 0.00071-0.11764 0.007-0.17327 0.0213-0.0468 0.0106-0.0918 0.0248-0.13252 0.0443-0.21756 0.0964-0.38445 0.2902-0.44326 0.52477-0.0305 0.12153-0.19666 0.25193-0.32209 0.25193h-0.57969" class="fil11" fill="#0d0d0d"/>
  <path d="m262.291 521.948v2.52673h2.86157v-2.52673h-2.86157zm-0.37418-1.3787c-0.54637 0-0.99319 0.44716-0.99319 0.99319v3.06779c0 0.54602 0.44682 0.99319 0.99319 0.99319h3.74386c0.54638 0 0.99319-0.44717 0.99319-0.99319v-3.06779c0-0.54603-0.44681-0.99319-0.99319-0.99319h-0.71539c-0.12083-0.48189-0.55807-0.84189-1.0761-0.84189h-0.29516c-0.51803 0-0.95669 0.36-1.07752 0.84189h-0.57969z" fill-rule="evenodd" class="fil14" fill="url(#r)"/>
  <path d="m263.35 523.047v-2.53951c0-0.30165 0.1014-0.54868 0.22536-0.54868h0.29337c0.12396 0 0.22536 0.24677 0.22536 0.54868v2.53951h-0.74409z" fill-rule="evenodd" class="fil15" stroke="#000" stroke-width=".1" fill="url(#v)"/>
 </g>
</svg>
