<?xml version="1.0" encoding="UTF-8" standalone="no"?>
<!-- Created with Inkscape (http://www.inkscape.org/) -->
<svg xmlns:rdf="http://www.w3.org/1999/02/22-rdf-syntax-ns#" xmlns="http://www.w3.org/2000/svg" version="1.1" xmlns:cc="http://creativecommons.org/ns#" xmlns:xlink="http://www.w3.org/1999/xlink" viewBox="0 0 55.4 54.75" xmlns:dc="http://purl.org/dc/elements/1.1/">
 <defs>
  <linearGradient id="linearGradient11978-8">
   <stop stop-color="#3dc2f3" offset="0"/>
   <stop stop-color="#FFF" offset="1"/>
  </linearGradient>
  <linearGradient id="linearGradient11490">
   <stop stop-color="#0995dd" offset="0"/>
   <stop stop-color="#FFF" offset="1"/>
  </linearGradient>
  <radialGradient id="radialGradient13398" gradientUnits="userSpaceOnUse" cx="205" cy="58.58" r="0.9557" gradientTransform="matrix(2.9776183,-0.12193238,0.12533935,3.060816,-141.64717,827.6907)">
   <stop stop-color="#FFF" offset="0"/>
   <stop stop-color="#41c3f3" offset="1"/>
  </radialGradient>
  <linearGradient id="linearGradient13400" y2="62.89" xlink:href="#linearGradient11978-8" spreadMethod="reflect" gradientUnits="userSpaceOnUse" y1="65.6" gradientTransform="matrix(0.96039107,0.27865566,-0.27865566,0.96039107,311.31985,866.01704)" x2="198.1" x1="190.2"/>
  <linearGradient id="linearGradient13402" y2="62.18" spreadMethod="reflect" gradientUnits="userSpaceOnUse" y1="59.95" gradientTransform="matrix(0.96039107,0.27865566,-0.27865566,0.96039107,311.31985,866.01704)" x2="200.6" x1="206.9">
   <stop stop-color="#3dc2f3" offset="0"/>
   <stop stop-color="#FFF" offset="1"/>
  </linearGradient>
  <linearGradient id="linearGradient13404" y2="41.24" spreadMethod="reflect" gradientUnits="userSpaceOnUse" y1="40.5" gradientTransform="matrix(0.96039107,0.27865566,-0.27865566,0.96039107,311.31985,866.01704)" x2="190.3" x1="192.8">
   <stop stop-color="#3dc2f3" offset="0"/>
   <stop stop-color="#FFF" offset="1"/>
  </linearGradient>
  <linearGradient id="linearGradient13406" y2="26.98" xlink:href="#linearGradient11490" spreadMethod="reflect" gradientUnits="userSpaceOnUse" y1="29.55" gradientTransform="matrix(0.96039107,0.27865566,-0.27865566,0.96039107,311.31985,866.01704)" x2="175.4" x1="167.4"/>
  <linearGradient id="linearGradient13410" y2="58.98" xlink:href="#linearGradient11490" spreadMethod="reflect" gradientUnits="userSpaceOnUse" y1="62.53" gradientTransform="matrix(0.96039107,0.27865566,-0.27865566,0.96039107,311.31985,866.01704)" x2="184" x1="176"/>
  <radialGradient id="radialGradient13412" gradientUnits="userSpaceOnUse" cx="212.8" cy="58.83" r="0.9557" gradientTransform="matrix(2.9776183,-0.12193238,0.12533935,3.060816,-141.64717,827.6907)">
   <stop stop-color="#FFF" offset="0"/>
   <stop stop-color="#41c3f3" offset="1"/>
  </radialGradient>
  <linearGradient id="linearGradient13414" y2="350.5" xlink:href="#linearGradient11978-8" gradientUnits="userSpaceOnUse" y1="351.8" gradientTransform="matrix(0.96039107,0.27865566,-0.27865566,0.96039107,344.07757,572.12879)" x2="262.4" x1="257.7"/>
 </defs>
 <metadata>
  <rdf:RDF>
   <cc:Work rdf:about="">
    <dc:format>image/svg+xml</dc:format>
    <dc:type rdf:resource="http://purl.org/dc/dcmitype/StillImage"/>
    <dc:title/>
   </cc:Work>
  </rdf:RDF>
 </metadata>
 <g fill-rule="evenodd" transform="translate(-449.87037,-934.32668)">
  <path fill="#2e2a2b" d="m467.1,938.3,12.46,0.0885c2.201-0.0292,2.689,0.5888,3.452,1.573l1.126,1.376,9.532,0.001c0.8417,0.0541,1.344,0.2936,1.594,0.7489,0.1624,0.4272,0.1844,1.006,0.1556,1.761l0.0327,1.534c0.013,2.578-0.6525,2.576-1.696,2.559l-2.201,0.0291-0.005,19.73c0.3772,0.0116,0.8674-0.0335,1.421,0.0314,1.043,0.0178,1.999,0.009,2.002,2.296-0.0145,0.3771-0.028,0.7559-0.0166,1.044-0.0145,0.3771-0.0546,0.8431,0.008,0.9562-0.0532,0.8424-0.1184,1.395-0.5103,1.759-0.3028,0.3885-0.8184,0.5239-1.661,0.4708-0.466-0.0403-0.8678,0.0345-1.246,0.02l-0.0273,3.709c0.1765,0.0514,0.3774,0.0116,0.5538,0.0649,0.2629,0.076,0.5521,0.0668,0.7035,0.2041,1.23,0.357,1.843,1.204,1.888,2.36l3.281,0.1891c0.0762-0.2628,0.1529-0.5269,0.3806-0.6522,0.1643-0.2387,0.5923-0.3995,0.8806-0.411l0.0889,0.0258c0.3774,0.0116,0.7035,0.2041,0.9164,0.4572,0.2376,0.1637,0.3999,0.5911,0.4109,0.8806l-0.0259,0.0893,0.0201,1.245c-0.0145,0.376-0.2041,0.7034-0.4814,1.004-0.2527,0.2117-0.5681,0.3115-0.9695,0.3851-0.3774-0.0116-0.7035-0.2041-0.9168-0.456-0.1499-0.1382-0.2129-0.2532-0.2493-0.455l-3.498,0.2255c-0.1529,0.527-0.368,0.941-0.76,1.305-0.6432,0.5749-1.5,0.8977-2.543,0.8814l-4.867,0.0183c-1.245,0.02-2.125-0.2353-2.664-0.6782-0.4504-0.417-0.7016-0.87-0.81-1.474l-5.37-0.2227c-0.0508,0.1752-0.1271,0.4381-0.3542,0.5636-0.2525,0.2131-0.5922,0.401-0.9698,0.3863-0.3772-0.0116-0.7287-0.1163-0.9416-0.368-0.2126-0.2518-0.4-0.5925-0.3857-0.9696l0.006-1.334c0.0135-0.3776,0.2041-0.7035,0.4558-0.9155,0.1892-0.3264,0.5931-0.4006,0.9702-0.3861,0.3772,0.0116,0.7293,0.1163,0.9416,0.368,0.1505,0.1384,0.2123,0.2529,0.2502,0.4538l5.371-0.4434c0.1529-0.5269,0.5078-1.092,1.013-1.518,0.5923-0.3994,1.273-0.7732,2.141-0.8066l0.0276-3.711c-0.4914,0.0471-0.955,0.008-1.535,0.0313l-2.095,1.965c-0.8088,0.8144-1.427,1.303-3.627,1.332-1.999-0.009-4.199,0.0195-6.401,0.0484-2.088-0.0336-4.175-0.0672-6.464-0.0638-0.7546-0.0329-1.332-0.007-1.923-0.2729-0.5899-0.2659-1.04-0.6831-1.767-1.465-0.3001-0.2784-0.576-0.6434-0.7883-0.8963-0.2126-0.2518-0.4254-0.5049-0.7886-0.8952-0.1501-0.1394-0.2123-0.253-0.275-0.3662-0.0366-0.202,0.0397-0.4648,0.1787-0.616,0.1134-0.0616,0.2521-0.2118,0.3657-0.2739,0.2887-0.0122,0.6038-0.1112,0.8932-0.1221,2.377,0.0215,5.13,0.0583,7.796,0.0689,2.665,0.0102,5.332,0.0217,8.086,0.058,0.5775-0.0224,1.12-0.2464,1.687-0.5595,0.4792-0.3374,0.9839-0.7623,1.4-1.213,1.478-1.479,3.434-3.294,4.767-3.288,0.202-0.0369,0.2901-0.0111,0.466,0.0393l0.0559-19.91-0.6661-0.003c-1.446,0.0567-2.084-0.6999-2.361-1.065l-2.314-2.865c-1.064-1.261-1.064-1.261-2.598-1.23l-14.84-0.1116c-0.8682,0.0344-2.402,0.0669-1.353-1.25l1.389-1.504c0.6953-0.751,1.288-1.152,1.829-1.375,0.63-0.1986,1.183-0.1331,1.963-0.1931"/>
  <path style="enable-background:accumulate;color:#000000;" d="m476.4,980.4c-0.006-0.00018-0.002,0.03-0.009,0.0297-0.0212-0.00066-0.0471,0.009-0.0686,0.0119-0.0263-0.0008-0.044,0.009-0.0686,0.0119-0.009-0.00027-0.0215-0.0107-0.0298-0.0109-0.0592-0.0159-0.1048-0.0132-0.1373,0.0248-0.002-0.00056-0.0258-0.0178-0.0299-0.011-0.0752,0.0137-0.1585,0.0372-0.2149,0.0675,0,0-0.009,0.0157-0.0472,0.0506-0.0224,0.009-0.0464,0.009-0.0686,0.0119l-0.0262,0.0902c-0.0543-0.0156-0.056-0.00078-0.0772,0.0417-0.009,0.01-0.0211-0.0167-0.0299-0.0109l-0.0261,0.0903-0.0261,0.0903-0.0261,0.0902-0.0261,0.0903-0.0261,0.0902-0.0261,0.0903-0.0261,0.0903,0.0377,0.2062-0.009,0.0297c-0.007,0.0187-0.0117,0.0407-0.0174,0.0595l0.0377,0.2062-0.0262,0.0903,0.0203,0.2662-0.0261,0.0902-0.0261,0.0903c0.0105,0.0194,0.0391,0.0291,0.0514,0.0476l0.0128,0.0684-0.0261,0.0903-0.0261,0.0902c0.0254,0.0228,0.0546,0.0378,0.0814,0.0556,0.004,0.0251-0.0173,0.0596-0.0173,0.0596,0.004,0.0251,0.0329,0.0601,0.0639,0.1164,0.0312,0.057,0.0539,0.0686,0.0727,0.0853l-0.009,0.0297,0.09,0.0258s-0.0242,0.0903,0.0639,0.1164l0.09,0.0258c0.0468,0.0855,0.1542,0.1136,0.2915,0.1169,0.0469,0.002,0.0848-0.007,0.1287,0.003,0.0442,0.0124,0.0981-0.012,0.1373-0.0249,0.093-0.009,0.2015-0.01,0.275-0.0507,0.0129-0.0446,0.0577-0.0572,0.0863-0.0734,0.008,0.00024,0.0194,0.0156,0.0298,0.0109l0.0261-0.0903c0.0254-0.0873,0.1165-0.0656,0.1422-0.154l0.0261-0.0902,0.0261-0.0903,0.0262-0.0903,0.0261-0.0902,0.0261-0.0903,0.0174-0.0596-0.0639-0.1164,0.0523-0.18-0.029-0.2363,0.0435-0.15-0.0377-0.2062,0.0261-0.0903,0.0262-0.0902-0.0639-0.1163,0.0261-0.0903,0.0174-0.0596c-0.0177-0.0165-0.0328-0.0341-0.0514-0.0476-0.008-0.0143-0.0253-0.0248-0.0127-0.0684-0.0104-0.0134-0.0101-0.0294-0.0214-0.0387-0.0187-0.0176-0.0555-0.0328-0.0428-0.0773l-0.0639-0.1164s-0.0599-0.0179-0.0338-0.1077l-0.09-0.0257c-0.0877-0.0256-0.1561-0.1432-0.2439-0.1687-0.0441-0.0124-0.1029-0.0411-0.1501-0.0436z" fill="url(#radialGradient13398)"/>
  <path style="color:#000000;enable-background:accumulate;" d="m482.9,980.9-0.2063,0.0377-0.09-0.0257-0.2063,0.0377-0.2663,0.0208-0.09-0.0257-0.2063,0.0377-0.2062,0.0377-0.2063,0.0377-0.1801-0.0525-0.1974,0.007-0.1762,0.0467-0.09-0.0257-0.2062,0.0377-0.2963,0.012-0.09-0.0257-0.2063,0.0377-0.2063,0.0377-0.09-0.0257-0.2663,0.0208-0.2062,0.0377-0.09-0.0257-0.2062,0.0377-0.2063,0.0377-0.1801-0.0526-0.2063,0.0377-0.1762,0.0467-0.009,0.0297-0.1073,0.0337-0.09-0.0257-0.2963,0.012-0.0347,1.129,0.1162-0.0645,0.15,0.0436,0.2063-0.0377,0.09,0.0257,0.09,0.0257,0.2963-0.012,0.09,0.0257,0.09,0.0257,0.2063-0.0377,0.09,0.0257,0.1501,0.0436,0.2063-0.0377,0.09,0.0257,0.2963-0.012,0.09,0.0257,0.09,0.0257,0.2063-0.0377,0.09,0.0258,0.1801,0.0526,0.1762-0.0467,0.09,0.0257,0.2063-0.0377,0.1801,0.0526,0.09,0.0257,0.2063-0.0377,0.09,0.0257,0.09,0.0258,0.2663-0.0209,0.09,0.0257,0.09,0.0257,0.1973-0.007,0.1801,0.0526,0.2063-0.0377,0.09,0.0257,0.09,0.0257,0.2063-0.0377,0.0113-1.721-0.09-0.0257z" fill="url(#linearGradient13400)"/>
  <path style="color:#000000;enable-background:accumulate;" d="m491.9,978.7c-0.1011,0.0189-0.202,0.0159-0.2963,0.012-0.1753-0.0503-0.2725-0.0793-0.3864-0.0118l-0.09-0.0258-0.09-0.0257-0.5624,0.0318-0.2963,0.012-0.2963,0.012-0.2663,0.0209-0.5664-0.0662-0.5925,0.023-0.2663,0.0209-0.2964,0.012-0.2963,0.012-0.6175-0.1149-0.5925,0.023c-0.0758,0.0147-0.1366,0.0268-0.2063,0.0377-0.0263-0.0108-0.0639-0.0179-0.09-0.0258-0.0436,0.009-0.0705,0.0239-0.1073,0.0337-0.0291-0.00089-0.0797,0.009-0.0987,0.006-0.1617,0.0291-0.3243,0.0732-0.4986,0.1483-0.0928,0.0212-0.1938,0.0691-0.2924,0.1103-0.0508,0.0125-0.0989,0.037-0.1462,0.0556-0.1008,0.018-0.174,0.0618-0.2623,0.1192-0.0495,0.0275-0.0725,0.0568-0.1248,0.0943-0.0536,0.0364-0.1208,0.0413-0.1849,0.0764l-0.0261,0.0903c-0.0889-0.0257-0.1201,0.0644-0.2323,0.1279-0.0337,0.0429-0.0421,0.0978-0.0734,0.1413-0.0196,0.0274-0.0375,0.0539-0.0562,0.0813-0.0571,0.0662-0.1023,0.1304-0.151,0.184l-0.0173,0.0596c-0.1334,0.2439-0.2009,0.4894-0.209,0.7203l-0.0297,2.009c0.0157,0.385,0.111,0.6991,0.2751,0.9583l0.0124,0.0684c0.0623,0.1128,0.1014,0.2247,0.2779,0.2759,0.0315,0.0571,0.0919,0.0798,0.1328,0.1031,0.0402,0.0262,0.0965,0.0489,0.1414,0.0732,0.0726,0.0592,0.1562,0.0999,0.2528,0.138,0.0211,0.0167,0.0282,0.0319,0.0514,0.0476,0.0384,0.0111,0.0812,0.0246,0.1201,0.0347,0.0464,0.0144,0.1103,0.0324,0.15,0.0436,0.1753,0.0503,0.361,0.0105,0.5364,0.0573,0.1753,0.0503,0.3937,0.012,0.6565,0.092l0.009-0.0297c0.002,0.00057,0.0249,0.0178,0.0298,0.0109,0.0515,0.00081,0.1104-0.006,0.1673-0.0159l0.09,0.0257,0.2663-0.0209,0.2963-0.012,0.2963-0.012,0.5664,0.0662,0.2663-0.0209,0.2963-0.012,0.2963-0.012,0.2874,0.0188,0.2663-0.0209,0.2963-0.012,0.5664,0.0663,0.5624-0.0318,0.0601,0.0179,0.3263-0.002c0.113-0.0616,0.002,0.00056,0.09,0.0258,0.0566-0.0313,0.1148-0.0406,0.1762-0.0467,0.1776-0.0197,0.3507-0.007,0.5324-0.0408,0.1086-0.0197,0.1932-0.0722,0.2924-0.1104,0.2009-0.0379,0.3186-0.0754,0.546-0.1995l0.009-0.0297c0.0916-0.0503,0.1735-0.0898,0.241-0.1579,0.008-0.01,0.00089-0.027,0.009-0.0297,0.0265,0.0108,0.0493,0.0008,0.0687-0.0119,0.013-0.0101,0.0262-0.0132,0.0387-0.0209,0.0313-0.026,0.0677-0.0631,0.1248-0.0943,0.1078-0.1172,0.2052-0.2477,0.272-0.3766,0.2199-0.2667,0.3514-0.5169,0.3813-0.8656,0.0254-0.0873,0.0768-0.2719,0.0147-0.3862l0.003-1.691c0.0128-0.0437,0.00013-0.1028-0.0165-0.1674-0.0121-0.2192-0.0571-0.4244-0.1821-0.606-0.0814-0.1819-0.1841-0.3529-0.3844-0.4694-0.0895-0.0958-0.1746-0.1925-0.3079-0.2846l-0.4502-0.1306-0.1801-0.0525-0.4202-0.122-0.09-0.0257z" fill="url(#linearGradient13402)"/>
  <path d="m490.7,947.9-0.5625,0.032-0.5663-0.0667-0.5625,0.032-0.2962,0.0116-0.2962,0.0116-0.4676-0.0705-0.4724,0.0582-0.2962,0.0116-0.3863-0.0148-0.0467,4.086,0.0113,9.83,0.0156,0.3951,0.008,4.46-0.0174,1.069c0.0438-0.009,0.0871,0.003,0.1287,0.003,0.0474,0.00081,0.1107,0.0154,0.1673-0.0159,0.1227,0.0357,0.256,0.008,0.395-0.016,0.1499,0.0196,0.293,0.0199,0.4374,0.0624,0.0553-0.0104,0.1129-0.007,0.1673-0.0159,0.0425,0.002,0.089-0.007,0.1287,0.003,0.1005-0.019,0.2021-0.0149,0.2963-0.012,0.2009-0.0379,0.3606,0.00059,0.5624-0.0318,0.0876,0.0256,0.0924,0.0268,0.2063-0.0377,0.0439,0.0124,0.092,0.0377,0.1501,0.0436,0.1415,0.0262,0.3066-0.0007,0.4637-0.0278,0.0195-0.0101,0.0492-0.009,0.0687-0.012,0.0877,0.0257,0.2711-0.0198,0.4464,0.0315,0.1005-0.019,0.1748-0.0237,0.2363-0.0298,0.0198,0.0106,0.0398,0.0112,0.0601,0.0179,0.0877,0.0257,0.0901,0.0257,0.1162-0.0646l0.0323-3.7-0.023-4.855,0.0119-4.975-0.0116-0.2962-0.0118-4.559-0.003-1.335-0.0987,0.003,0.009-0.0299z" fill="url(#linearGradient13404)"/>
  <path d="m494.1,942.1c-0.0885-0.0257-0.3014,0.0102-0.4763-0.0406l-0.4637,0.0281-0.9613-0.0512-1.236-0.001-1.245,0.0292-1.155,0.0553-0.6525,0.007-0.6825-0.002-0.5537,0.002-1.309-0.0869-1.275,0.0206-0.0861,0.0726c-0.0872-0.0253-0.2458-0.1689-0.334-0.1945l-0.1278-0.2323-1.132-1.37c-0.1592-0.1887-0.3184-0.38-0.5258-0.543-0.2199-0.2176-0.4625-0.4271-0.792-0.5226-0.3521-0.1022-0.7041-0.2001-1.283-0.177-0.0877-0.0254-0.1806-0.0504-0.2062,0.0377l-0.4463-0.0318-0.5925,0.0234-1.309-0.0869-1.236-0.001-1.245,0.0293-0.6825-0.002-1.245,0.0292-0.6525,0.007-1.21-0.0908-0.425,0.008-0.2575-0.0101-1.245,0.0293-0.6525,0.007-0.5925,0.0234-0.7425-0.0206c-0.2008,0.0367-0.3806-0.0427-0.4937,0.0195-0.2261,0.006-0.4878-0.00009-0.6525,0.007-0.2016,0.0378-0.415,0.0774-0.5286,0.1395-0.0878-0.0254-0.0905-0.0241-0.1161,0.064-0.1155,0.0431-0.2309,0.074-0.3311,0.1317-0.1102,0.056-0.2058,0.1199-0.3185,0.2004-0.0174,0.0139-0.0299,0.0363-0.0474,0.0514-0.2088,0.1571-0.431,0.3689-0.6466,0.6584l-1.432,1.569s0.498-0.0183,0.6738,0.0328l1.987-0.009,0.5925-0.0234,0.6825,0.002,1.236,0.001,1.245-0.0292,1.309,0.0869,0.5625-0.032,1.335-0.003,1.236,0.001,0.6825,0.002,0.5624-0.032,0.6825,0.002,1.219,0.0609,0.3262-0.002,0.3476,0.0357,0.9487-0.0177c0.1178,0.005,0.193-0.0119,0.2962-0.0116,0.2615-0.011,0.457-0.0154,0.6525-0.007,0.5238,0.0621,0.7967,0.1339,1.153,0.3996,0.1801,0.1596,0.3973,0.3978,0.641,0.7066,0.1509,0.1389,0.2883,0.2489,0.3505,0.362l0.8153,1.115,1.196,1.486,0.3079,0.2846c0.1061,0.1258,0.208,0.2372,0.3505,0.362,0.007,0.007,0.0223,0.00091,0.0299,0.009,0.1392,0.1189,0.3084,0.2394,0.548,0.3542,0.1924,0.0558,0.4124,0.0863,0.6564,0.0928,0.0878,0.0255,0.1529,0.0422,0.2662-0.0203l0.3776,0.0444,0.6825,0.002,1.219,0.0608,0.5625-0.032,0.5925-0.0234,0.6525-0.007,1.236,0.001,0.6825,0.002,0.5925-0.0234,0.6525-0.007,0.6825,0.002,0.4463,0.0318,0.09,0.0261c0.0588-0.006,0.1134-0.004,0.1675-0.0165,0.2462-0.0177,0.4513-0.0975,0.5469-0.427,0.0765-0.2641,0.0834-0.6422,0.0869-1.309l0.0752-1.605c0.0005-0.1151-0.009-0.1922-0.0116-0.2962-0.022-0.5791,0.008-0.9438-0.1415-1.082-0.0365-0.2019-0.2239-0.2602-0.488-0.3368zm-3.402,5.781,0.0932,1.361-0.003-1.335-0.09-0.0262z" fill="url(#linearGradient13406)"/>
  <path style="color:#000000;enable-background:accumulate;" d="m490.7,974.2c-0.004-0.00098-0.005,0.0239-0.009,0.0297-0.0664,0.008-0.1389,0.0249-0.1973,0.007l-0.09-0.0257c-0.0889-0.0258-0.1097,0.0326-0.1973,0.007l-0.0901-0.0257c-0.0474,0.0256-0.0755,0.0627-0.1162,0.0645l-0.2701-0.0782-0.009,0.0297c-0.033-0.00087-0.0624,0.008-0.1073,0.0337l-0.15-0.0436c-0.0476,0.0266-0.0823,0.0605-0.1162,0.0646l-0.2701-0.0782c-0.0129,0.0446-0.0501,0.0705-0.0863,0.0734-0.009-0.00028-0.0208-0.0107-0.0298-0.0109l-0.1801-0.0526c-0.0478,0.0256-0.0821,0.0605-0.1162,0.0646l-0.1801-0.0526s-0.1187,0.0634-0.2062,0.0377l-0.0601-0.0179c-0.0876-0.0256-0.1186,0.0634-0.2062,0.0377-0.0439-0.0124-0.0837-0.0366-0.1201-0.0347-0.0837-0.0126-0.1874,0.0433-0.2663,0.0209l-0.09-0.0257c-0.1142,0.0616-0.1186,0.0634-0.2063,0.0377-0.0539-0.0156-0.0893-0.0158-0.1287-0.003-0.0902,0.0323-0.1819,0.0114-0.2574-0.008l-0.0601-0.0179-0.009,0.0297c-0.0149,0.0226-0.0499,0.0102-0.0686,0.012-0.0134-0.00042-0.025,0.0253-0.0386,0.0208l-0.0385,1.03,0.0352,1.897-0.002,0.6825,0.09,0.0257,0.09,0.0257,0.2663-0.0209,0.09,0.0257,0.2063-0.0377,0.09,0.0258,0.2963-0.012,0.09,0.0257,0.2063-0.0377,0.09,0.0257,0.2663-0.0209,0.09,0.0257,0.2062-0.0377,0.09,0.0257,0.2963-0.012,0.09,0.0257,0.1974-0.007,0.09,0.0257,0.2663-0.0209,0.09,0.0257,0.2063-0.0377,0.09,0.0257,0.2963-0.012,0.09,0.0257,0.009-0.0297,0.1073-0.0337-0.003-1.335,0.001-0.2274,0.0345-2.138c-0.0444-0.0134-0.0755-0.0343-0.09-0.0257z" fill="url(#linearGradient13404)"/>
  <path d="m493.5,968.5c-0.1305-0.038-0.2609-0.065-0.3988-0.0831l-0.1162,0.0646c-0.0877-0.0257-0.1898-0.0258-0.2874-0.0188-0.3639-0.0262-0.7308-0.0362-1.047,0.0211-0.2389,0.003-0.4637,0.0128-0.6525,0.007-0.2589,0.002-0.5205-0.006-0.7724-0.0335-0.2171,0.005-0.4299,0.0259-0.6525,0.007-0.0566,0.0312-0.1205,0.0183-0.1673,0.0159-0.0479-0.00082-0.0777-0.003-0.1287-0.003-0.0573,0.0312-0.1254,0.006-0.1973,0.007-0.1752,0.0147-0.3673,0.0189-0.5925,0.0231-0.3393-0.0234-0.6811-0.0427-1.039-0.008-0.219,0.005-0.4309,0.0249-0.6525,0.007-0.1892-0.006-0.392-0.0119-0.5838-0.007-0.0635-0.003-0.1235-0.0147-0.1887-0.0227-0.1141,0.0616-0.2685,0.0208-0.3824,0.0844-0.0881-0.0257-0.182-0.0526-0.2963,0.012-0.0797,0.0166-0.1614,0.0291-0.2449,0.0596-0.0431,0.0147-0.0934,0.007-0.1373,0.0248-0.0829,0.0314-0.1723,0.0628-0.2536,0.0893l-0.009,0.0297c-0.4445,0.2466-0.8114,0.4996-1.283,0.8319-0.1958,0.1813-0.375,0.3684-0.5817,0.547-0.0257,0.0182-0.051,0.0235-0.0772,0.0417-0.0343,0.0319-0.0607,0.0711-0.0948,0.1026-0.1568,0.1299-0.3233,0.2517-0.4995,0.3758-0.1389,0.1503-0.2825,0.3336-0.4355,0.4918-0.0446,0.0417-0.089,0.0823-0.1336,0.124-0.1151,0.1081-0.2503,0.2133-0.3746,0.2818-0.1395,0.1495-0.163,0.2142-0.2758,0.2778l-0.009,0.0297c-0.3014,0.3803-0.6832,0.729-1.129,0.9742l-0.0261,0.0903c-0.4288,0.1619-0.8831,0.4323-1.286,0.5056-0.1093,0.0276-0.2315,0.0509-0.3436,0.0626-0.0211-0.00063-0.0478,0.009-0.0686,0.012-0.0913,0.007-0.1939-0.006-0.2874-0.0188-0.0439-0.0124-0.0603,0.0241-0.0772,0.0417-0.0133-0.00041-0.024,0.0213-0.0386,0.0209-0.1759-0.0514-0.3622-0.0115-0.6264-0.0841-0.3009,0.0539-0.6396,0.0565-0.9962,0.0687-0.2941-0.0229-0.5749-0.008-0.88,0.005-0.1789-0.005-0.3621-0.032-0.5451-0.0275-0.3673-0.0115-0.7384,0.006-1.099-0.0235-0.4652-0.0402-0.8694,0.0417-1.335,0.003-0.0237-0.00072-0.0462,0.0136-0.0687,0.0119-0.0331-0.00087-0.0656-0.003-0.0987,0.006-0.2022-0.006-0.4051-0.0284-0.605-0.0454-0.4916,0.0491-0.9609,0.0187-1.451,0.067-0.0881-0.0257-0.1838-0.0537-0.3864-0.0118-0.0872-0.0257-0.1442-0.0724-0.2574-0.008-0.2351,0.003-0.4719-0.0143-0.6825-0.002-0.2492,0.002-0.5005,0.00095-0.7424-0.0226-0.2289,0.003-0.4595,0.016-0.6825-0.002-0.2492,0.002-0.5002,0.00097-0.7424-0.0226-0.0991,0.018-0.22-0.007-0.3263,0.002-0.118-0.004-0.2387,0.004-0.3565-0.0006-0.4912,0.0471-0.9519-0.012-1.442,0.037-0.4648-0.0402-0.934-0.0716-1.425-0.0235-0.2807-0.008-0.5604-0.007-0.8413-0.0157-0.096-0.005-0.1914-0.0158-0.2874-0.0188-0.0704,0.0129-0.136,0.0248-0.2062,0.0377-0.1313,0.024-0.2513,0.0604-0.3824,0.0844l-0.0261,0.0903c0.303,0.2374,0.4891,0.4357,0.6497,0.6766,0.05,0.0736,0.1051,0.1457,0.1366,0.2022,0.1192,0.0827,0.2227,0.1678,0.3166,0.2547,0.081,0.0726,0.1627,0.1777,0.2479,0.2671l0.0213,0.0387c0.063,0.1131,0.1316,0.2334,0.3079,0.2846,0.1179,0.2152,0.3392,0.422,0.4871,0.5643l0.0213,0.0387c0.0331,0.0261,0.0501,0.0325,0.0814,0.0556,0.2292,0.2377,0.4539,0.4368,0.6845,0.5566l0.1801,0.0525,0.6002,0.1742c0.1898-0.007,0.4426-0.004,0.6825,0.002,0.0881,0.0256,0.2685-0.0199,0.3565,0.0006,0.0433,0.00084,0.1116,0.0144,0.1587,0.0149,0.0615-0.008,0.1394-0.0238,0.2275-0.003,0.4647,0.0402,0.9519,0.0129,1.416,0.0532,0.0714-0.0138,0.1613-0.0221,0.2363-0.0288,0.1483,0.0145,0.2988,0.0191,0.4464,0.0315,0.4669-0.0459,0.918-0.016,1.382-0.0549,0.0208,0.0107,0.0462-0.0136,0.0686-0.0119,0.4647,0.0402,0.9343,0.0705,1.425,0.0235,0.3772,0.0116,0.743,0.0507,1.12,0.0643,0.2898-0.0101,0.5715-0.0317,0.9487-0.0172,0.2456-0.0246,0.4933-0.013,0.7212-0.0192,0.4514-0.0362,0.8907,0.008,1.344-0.033,0.0952,0.004,0.1911,0.0189,0.2874,0.0188,0.3817,0.0306,0.764,0.0534,1.168,0.014,0.2288-0.003,0.4596-0.017,0.6825,0.002,0.2088,0.006,0.4252-0.004,0.6525-0.007,0.2012-0.0369,0.3916,0.012,0.5924-0.0229l0.1801,0.0526c0.4907-0.049,0.8941-0.1363,1.297-0.2094,0.0131-0.01,0.0271-0.0182,0.0387-0.0208,0.008,0.00024,0.022,0.0107,0.0298,0.0109,0.1414-0.0358,0.2373-0.0558,0.3524-0.0929,0.0957-0.0351,0.1781-0.0767,0.2623-0.1192,0.0285-0.0171,0.0504-0.0265,0.0772-0.0417,0.1509-0.0835,0.2732-0.1767,0.4046-0.273,0.0521-0.0415,0.1153-0.0716,0.1636-0.1153l0.009-0.0297c0.0876-0.0793,0.1814-0.1552,0.2672-0.2479l0.2846-0.3079,0.3059-0.2691,0.3233-0.3293,0.6504-0.5596,0.6766-0.6498c0.0881,0.0257,0.2046-0.1358,0.2923-0.1104,0.0466,0.00083,0.1081,0.0143,0.1587,0.0149,0.0469,0.002,0.081,0.003,0.1373-0.0248,0.2228,0.0188,0.4535,0.004,0.6825,0.002,0.4647,0.0402,0.9602-0.0168,1.425,0.0235,0.4009-0.0399,0.7826,0.002,1.176-0.0172,0.0865-0.0103,0.1776-0.0126,0.2663-0.0209,0.0877,0.0257,0.1513,0.0436,0.2663-0.0209,0.0666,0.003,0.1266,0.0208,0.1887,0.0227,0.0686,0.0121,0.141,0.0233,0.1973-0.007,0.2145,0.007,0.4415-0.005,0.6825,0.002,0.4647,0.0402,0.9587-0.0157,1.425,0.0235,0.4902-0.048,0.9606-0.0177,1.451-0.067,0.1171,0.004,0.2302,0.0311,0.3474,0.0366,0.4659,0.0403,0.8042-0.0626,1.005-0.099,0.0256-0.0883,0.1168-0.0666,0.1422-0.1539,0.1386-0.1498,0.2648-0.5896,0.2671-1.257-0.0736-0.4014-0.007-0.6604-0.0177-0.9487-0.0478-0.4903-0.0336-0.8936,0.0173-1.069-0.0134-0.1793-0.0341-0.3292-0.0582-0.4724-0.0274-0.1775-0.0585-0.2985-0.1056-0.4211-0.0286-0.0819-0.0634-0.1612-0.0978-0.2236-0.0173-0.0295-0.0242-0.0518-0.0428-0.0773-0.0353-0.0541-0.0923-0.0667-0.1328-0.1031l-0.0127-0.0684c-0.0331-0.0231-0.0861-0.0147-0.1201-0.0347-0.0604-0.0319-0.1362-0.0722-0.2014-0.0911z" fill="url(#linearGradient13410)"/>
  <path style="color:#000000;enable-background:accumulate;" d="m499.3,980.3c-0.0439-0.0124-0.1221-0.004-0.1973,0.007-0.0323-0.00088-0.0653-0.003-0.0988,0.006-0.007,0.0217-0.0319,0.0331-0.0473,0.0506-0.0208-0.00063-0.0499,0.0102-0.0686,0.0119-0.006,0.0208-0.004,0.0429-0.0173,0.0596-0.0303-0.00088-0.0691,0.007-0.0987,0.006l-0.0261,0.0903c-0.0567,0.0312-0.0688,0.0539-0.0862,0.0725l-0.0174,0.0596-0.0261,0.0902-0.0261,0.0903-0.0261,0.0903-0.0261,0.0903-0.0261,0.0903-0.0261,0.0902,0.008,0.1975-0.009,0.0297-0.009,0.0297c-0.003,0.0109-0.005,0.0189-0.009,0.0297-0.0129,0.0447,0.005,0.0541,0.0127,0.0684l0.0252,0.1375-0.0523,0.1801,0.0465,0.1761-0.0261,0.0903-0.0261,0.0903,0.0639,0.1164-0.0261,0.0903-0.0261,0.0903c0.0173,0.0155,0.0341,0.0321,0.0514,0.0476,0.0104,0.0174,0.0213,0.0387,0.0128,0.0685,0.006,0.0122,0.013,0.0284,0.0213,0.0387,0.008,0.0553,0.0369,0.0971,0.0165,0.1676l0.09,0.0257c0.0188,0.0176,0.0328,0.0591,0.0639,0.1164l0.09,0.0257c0.0268,0.0208,0.0377,0.0692,0.0639,0.1164l0.1801,0.0526,0.2401,0.0692c0.0972-0.0521,0.2545-0.1051,0.3698-0.153,0.0237-0.009,0.0451-0.009,0.0686-0.0119,0,0,0.0473-0.0346,0.0862-0.0724,0.0287,0.00086,0.0391-0.0229,0.0562-0.0813l0.1162-0.0646,0.009-0.0297c0.0176-0.0186,0.0173-0.0596,0.0173-0.0596l0.0261-0.0903,0.0261-0.0903,0.0261-0.0903,0.0261-0.0902,0.0174-0.0596-0.0639-0.1164,0.0261-0.0903,0.0261-0.0903-0.0116-0.2963,0.0261-0.0902-0.0116-0.2962-0.0377-0.2062,0.0261-0.0902,0.0173-0.0596c-0.009-0.0133-0.0113-0.0294-0.0214-0.0387-0.005-0.0122-0.0195-0.0256-0.0213-0.0387-0.004-0.0251-0.0214-0.0387-0.0214-0.0387l0.0261-0.0903c-0.0102-0.0003-0.0203-0.00062-0.0298-0.0109-0.0544-0.0346-0.0338-0.1078-0.0338-0.1078-0.0116-0.00035-0.0195-0.00059-0.0298-0.0109-0.0549-0.0347-0.0173-0.103-0.094-0.1251,0,0-0.09-0.0257-0.0639-0.1164l-0.1801-0.0525-0.09-0.0257c-0.0877-0.0256-0.1791-0.0635-0.2701-0.0782z" fill="url(#radialGradient13412)"/>
  <path fill="#b3272c" d="m458,944.2,21.35-0.002c0.0877,0.0254,0.1759,0.051,0.2382,0.1654,0.0881,0.0255,0.15,0.1385,0.1246,0.2262l0.021,22.6c-0.0254,0.0873-0.0765,0.2641-0.1021,0.3517l-1.678,1.515-1.68,1.514c-0.0254,0.0873-0.1135,0.0615-0.1135,0.0615-0.0878-0.0256-0.1131,0.0617-0.1131,0.0617l-21.33-0.0865c-0.1763-0.0514-0.4147-0.2162-0.3634-0.3931l-0.0463-22.51,0.0255-0.0884s0.0254-0.0874,0.1386-0.1498l3.207-3.169c0.1136-0.062,0.2272-0.1241,0.3153-0.0986"/>
  <path fill="#f46d22" d="m478.4,945-20.28-0.0698-2.513,2.417,20.17,0.1322,2.625-2.479"/>
  <path fill="#f46d22" d="m478.9,945.5-2.538,2.506,0.0194,13.73-0.0445,7.709,1.061-1.028,0,0,1.54-1.364-0.0378-21.55"/>
  <path fill="#f6e216" d="m475.6,969.9,0.0144-21.73-20.57-0.0588-0.0141,21.73,20.57,0.06"/>
  <path fill="#2e2a2b" d="m472.1,961.3,1.112-1.203-0.0298,7.331-15.53-0.0262,1.086-1.115,13.35-0.0323,0.007-4.954,0,0zm-9.803-7.611,5.999,0.0242,0.045,1.157-5.998-0.0232-0.0459-1.157zm9.779-1.834,0.0545,5.067-13.33-0.0539-1.174,1.09,15.62,0.0517,0.004-7.244-1.173,1.09zm-9.754,11.28-0.0436,1.133,5.998,0.0249,0.0425-1.132-5.997-0.0259"/>
  <path fill="#ec771d" d="m472.1,951.8-13.33-0.0552,0.0542,5.068-1.174,1.09,0.004-7.244,15.62,0.0516-1.173,1.09,0,0zm0.0236,9.444,1.112-1.203-15.62-0.0518,0.0579,7.356,1.086-1.115,0.0333-5.042,13.33,0.0551"/>
  <path style="color:#000000;enable-background:accumulate;" d="m497.6,981.3-0.009,0.0297-0.1073,0.0337-0.09-0.0257-0.1801-0.0525-0.1763,0.0467-0.09-0.0257-0.09-0.0257-0.2062,0.0377-0.09-0.0257-0.1801-0.0526-0.009,0.0297-0.1073,0.0337-0.09-0.0257-0.1801-0.0526-0.1974,0.007-0.09-0.0257-0.15-0.0436-0.009,0.0297-0.1073,0.0337-0.09-0.0257-0.18-0.0525-0.1162,0.0646-0.09-0.0258-0.09-0.0257-0.09-0.0257-0.009,0.0297-0.1073,0.0337-0.0346,1.129c-0.0206,0.0714-0.0226,0.1296,0.0165,0.1676,0.008,0.0443,0.006,0.0903-0.004,0.1287l0.09,0.0257,0.2063-0.0377,0.09,0.0257,0.2063-0.0377,0.0601,0.0179,0.2063-0.0377,0.1973-0.007,0.09,0.0257,0.2063-0.0377,0.09,0.0257,0.2062-0.0377,0.09,0.0258,0.2063-0.0377,0.09,0.0257,0.0862-0.0724,0.09,0.0257,0.2063-0.0377,0.09,0.0257,0.2062-0.0377,0.09,0.0257,0.009-0.0297,0.1073-0.0337,0.09,0.0258,0.09,0.0257,0.009-0.0297,0.1073-0.0337,0.09,0.0257,0.008-1.039-0.0901-0.0257-0.09-0.0258-0.18-0.0525z" fill="url(#linearGradient13414)"/>
  <path d="m472.1,951.8-13.33-0.0552,0.0542,5.068-1.174,1.09,0.004-7.244,15.62,0.0516-1.173,1.09,0,0zm0.0236,9.444,1.112-1.203-15.62-0.0518,0.0579,7.356,1.086-1.115,0.0333-5.042,13.33,0.0551" fill="#ec771d"/>
  <path fill="#2e2a2b" d="m485.7,950.2,5.689-1.209c0.0878,0.0254,0.0878,0.0254,0.1754,0.0508,0.3148-0.1,0.6668,0.002,0.9928,0.193,0.2375,0.164,0.425,0.5047,0.5252,0.8188l-0.0254,0.0877c0.0619,0.1143,0.0111,0.2895-0.0145,0.3772-0.0254,0.0877,0.0377,0.2022-0.0766,0.2641-0.1529,0.527-0.6591,0.9528-1.148,1.001l-5.778,1.184-0.0873-0.0254c-0.4025,0.0733-0.667-0.003-0.9923-0.1928-0.239-0.1644-0.4265-0.5051-0.5253-0.8201,0.0254-0.0877,0.0254-0.0877-0.0632-0.1134,0.0254-0.0877,0.0765-0.2641,0.0145-0.377,0.0255-0.0877,0.0512-0.1765,0.0766-0.2641,0.24-0.5017,0.6573-0.9534,1.237-0.9753zm-0.2967,13.83,5.84-1.07,0.1136-0.0636c0.3772,0.0116,0.7289,0.1163,0.9664,0.2804,0.3258,0.1914,0.5392,0.4428,0.5248,0.8201l0.0623,0.1128c-0.0254,0.0873,0.038,0.201,0.0122,0.2899-0.0512,0.1764-0.0765,0.2641-0.1021,0.3518-0.2418,0.5013-0.6325,0.8655-1.237,0.9752l-5.751,1.096c-0.1131,0.0616-0.1131,0.0616-0.2012,0.0359-0.2887,0.0121-0.6664-0.002-0.8788-0.255-0.3264-0.1894-0.5385-0.4413-0.6382-0.7566,0.0254-0.0873,0.0254-0.0873,0.0508-0.1752-0.0621-0.1138-0.0366-0.2019-0.0111-0.2896,0.0254-0.0873,0.0512-0.1764,0.0766-0.2641,0.1529-0.527,0.6571-0.9521,1.173-1.089zm0.2146-9.28c-0.516,0.1366-1.021,0.5615-1.174,1.09-0.0254,0.0873-0.0508,0.1753-0.0767,0.2642-0.0254,0.0873-0.0508,0.1752-0.0135,0.3773l-0.0254,0.0873c0.0997,0.3153,0.2861,0.6557,0.6128,0.8442,0.1504,0.1405,0.5016,0.2424,0.9048,0.1688l0.0877,0.0257,5.777-1.185c0.6048-0.1108,0.9952-0.4739,1.236-0.9755,0.0255-0.0873,0.0512-0.1765,0.0767-0.2641,0.0508-0.1753-0.0112-0.2896,0.0145-0.3772,0,0,0.0255-0.0873-0.0623-0.1132-0.0111-0.2895-0.1988-0.629-0.5248-0.82-0.2375-0.1639-0.5904-0.2663-0.9922-0.1915l-0.0889-0.0257-5.751,1.095zm-0.1064,4.64c-0.6052,0.1107-1.022,0.5611-1.262,1.063-0.0254,0.0873-0.0512,0.1764-0.0766,0.2642,0.0618,0.1126,0.036,0.2017,0.0102,0.2894l-0.0254,0.0873c0.0887,0.0256,0.0887,0.0256,0.0631,0.1141,0.0991,0.3138,0.3124,0.5657,0.5256,0.8189,0.3258,0.1893,0.5899,0.2659,0.9925,0.1922,0.0873,0.0257,0.0873,0.0257,0.0873,0.0257l5.864-1.157c0.5172-0.1362,0.9952-0.4739,1.148-1.002,0.0254-0.0873,0.0508-0.1753,0.1021-0.3519,0.0251-0.0863,0.0508-0.1752-0.0115-0.2883l0.0254-0.0873c-0.0731-0.4027-0.2861-0.6557-0.5248-0.8201-0.3264-0.1894-0.6769-0.2912-0.9676-0.2807-0.113,0.0616-0.113,0.0616-0.2006,0.0369l-5.75,1.096"/>
 </g>
</svg>
